# xmcd
#
# Track frame offsets: 
#        150
#        13655
#        35985
#        49065
#        74030
#        98425
#        117942
#        141040
#        162470
#        171709
#        194830
#        212310
#        225995
#        249812
#        273910
#        289572
#        309870
#        322017
#        335752
#
# Disc length: 4639 seconds
#
# Revision: 4
# Processed by: cddbd v1.5.2PL0 Copyright (c) Steve Scherf et al.
# Submitted via: ExactAudioCopy v1.0b1
#
DISCID=19121d13
DTITLE=John Lee Hooker - The Best of John Lee Hooker
DYEAR=1994
DGENRE=Blues
TTITLE0=One Bourbon, One Scotch, One Beer
TTITLE1=Never Get Out Of These Blues Alive
TTITLE2=Mr Lucky
TTITLE3=I'm Bad Like Jesse James
TTITLE4=Bluebird
TTITLE5=Shake It baby
TTITLE6=It's Serves You Right To Suffer
TTITLE7=Bang Bang Bang Bang
TTITLE8=Think Twice Before You Go
TTITLE9=Tantilizing With The Blues
TTITLE10=Peace Loving Man
TTITLE11=Stella Mae
TTITLE12=I Put My Trust In You
TTITLE13=The Waterfront
TTITLE14=I Can't Quit You
TTITLE15=This Land Is Nobody's Land
TTITLE16=Mad Man Blues
TTITLE17=Apologize
TTITLE18=I'm In The Mood
EXTD=
EXTT0=
EXTT1=
EXTT2=
EXTT3=
EXTT4=
EXTT5=
EXTT6=
EXTT7=
EXTT8=
EXTT9=
EXTT10=
EXTT11=
EXTT12=
EXTT13=
EXTT14=
EXTT15=
EXTT16=
EXTT17=
EXTT18=
PLAYORDER=
